<svg xmlns="http://www.w3.org/2000/svg" viewBox="0 0 32 32" fill="none">
  <defs>
    <linearGradient id="bg" x1="0" y1="0" x2="32" y2="32" gradientUnits="userSpaceOnUse">
      <stop offset="0%" stop-color="#141B2D"/>
      <stop offset="100%" stop-color="#0A0C10"/>
    </linearGradient>
    <linearGradient id="b" x1="9" y1="5" x2="24" y2="27" gradientUnits="userSpaceOnUse">
      <stop offset="0%" stop-color="#8EACFF"/>
      <stop offset="40%" stop-color="#4D7CFF"/>
      <stop offset="100%" stop-color="#2A45B3"/>
    </linearGradient>
  </defs>
  <rect width="32" height="32" rx="6" fill="url(#bg)"/>
  <!-- Z bolt with rounded joins -->
  <path d="M10,7.5 L22.5,7.5 Q23,7.5 23,8 L23,10 Q23,10.3 22.8,10.6 L14.5,21.5 L23,21.5 Q23.5,21.5 23.5,22 L23.5,25 Q23.5,25.5 23,25.5 L9.5,25.5 Q9,25.5 9,25 L9,23 Q9,22.7 9.2,22.4 L18,11.5 L10,11.5 Q9.5,11.5 9.5,11 L9.5,8 Q9.5,7.5 10,7.5 Z" fill="url(#b)"/>
  <!-- Glow dot -->
  <circle cx="23" cy="7.5" r="2" fill="#00F5D4" opacity="0.85"/>
  <circle cx="23" cy="7.5" r="0.8" fill="#FFFFFF" opacity="0.9"/>
</svg>
